<svg xmlns="http://www.w3.org/2000/svg" width="48" height="48"><g fill="none" fill-rule="evenodd"><circle cx="24" cy="24" r="24" fill="#EDEEEF"/><g transform="translate(12 4)"><rect width="22.667" height="38.667" x=".667" y="4.667" fill="#FFF" stroke="#2C3E4F" stroke-width="1.333" rx="2.667"/><circle cx="12" cy="39" r="1.667" fill="#FFF" stroke="#283E4F" stroke-width=".667"/><rect width="9.333" height="1" x="7.333" y="7.333" fill="#2C3E4F" rx=".5"/><g fill="#2C3E4F"><path d="M25.5 5h2.3333a.5.5 0 0 1 0 1H25.5a.5.5 0 1 1 0-1zM23.5.6667V3a.5.5 0 1 1-1 0V.6667a.5.5 0 0 1 1 0zM24.6869 3.0035l1.6499-1.65a.5.5 0 1 1 .7071.7071l-1.65 1.65a.5.5 0 1 1-.7071-.7071z"/></g><g transform="translate(2.6667 16)"><rect width="18.167" height="4.833" x=".25" y=".25" fill="#F3F3F4" stroke="#8B9094" stroke-width=".5" rx=".667"/><path fill="#353FF4" d="M2 2.6667a.6667.6667 0 1 0 0-1.3334.6667.6667 0 0 0 0 1.3334z"/><rect width="10.333" height="1" x="3.667" y="1.667" fill="#8B9094" rx=".5"/><rect width="13" height="1" x="3.667" y="3.333" fill="#8B9094" rx=".5"/></g></g></g></svg>