<svg xmlns="http://www.w3.org/2000/svg" xmlns:xlink="http://www.w3.org/1999/xlink" width="144" height="144" viewBox="0 0 144 144"><title>return-to-computer-large</title><defs><rect id="a" width="48" height="80" rx="8"/><circle id="b" cx="24" cy="69" r="5"/><rect id="c" width="96" height="64" rx="8"/></defs><g fill="none" fill-rule="evenodd"><circle cx="72" cy="72" r="72" fill="#EDEEEF"/><g transform="translate(10 10)"><use fill="#FFF" xlink:href="#a"/><rect width="44" height="76" x="2" y="2" stroke="#2C3E4F" stroke-width="4" rx="8"/><use fill="#FFF" xlink:href="#b"/><circle cx="24" cy="69" r="4" stroke="#283E4F" stroke-width="2"/><rect width="18" height="2" x="15" y="8" fill="#2C3E4F" rx="1"/></g><g transform="translate(22 37)"><circle cx="12" cy="12" r="12" fill="#353FF4"/><path fill="#FFF" d="M16.17 7.52l-5.87 6.22-1.47-1.55c-.65-.7-1.7-.7-2.34 0-.66.68-.66 1.8 0 2.48l2.63 2.8c.64.7 1.7.7 2.34 0L18.5 10c.66-.68.66-1.8 0-2.48-.63-.7-1.68-.7-2.33 0z"/></g><g transform="translate(42 48)"><use fill="#FFF" xlink:href="#c"/><rect width="92" height="60" x="2" y="2" stroke="#2C3E4F" stroke-width="4" rx="8"/><rect width="48" height="4" x="24" y="72" fill="#2C3E4F" rx="2"/><path fill="#2C3E4F" d="M25 54h46c.55 0 1 .45 1 1s-.45 1-1 1H25c-.55 0-1-.45-1-1s.45-1 1-1z"/><rect width="4" height="16" x="46" y="60" fill="#2C3E4F" rx="2"/></g><g stroke="#2C3E4F" stroke-linecap="round" stroke-linejoin="round" stroke-width="3"><path d="M75.12 59.37C77.5 50 71.86 40.25 62.56 37.6c-4.66-1.3-9.35-.6-13.17 1.6"/><path d="M79.3 59.35l-5.2 3-3-5.2"/></g></g></svg>