<svg xmlns="http://www.w3.org/2000/svg" width="48" height="48"><g fill="none" fill-rule="evenodd"><circle cx="24" cy="24" r="24" fill="#EDEEEF"/><g transform="translate(14.6667 8)"><rect width="17.333" height="30.667" x=".667" y=".667" fill="#FFF" stroke="#2C3E4F" stroke-width="1.333" rx="2.667"/><rect width="6.667" height="1" x="6" y="2.667" fill="#2C3E4F" rx=".5"/><circle cx="9.333" cy="28.667" r="1" fill="#FFF" stroke="#2C3E4F" stroke-width=".667"/></g><path fill="#FFF" stroke="#283E4F" stroke-width=".667" d="M6.7075 20.165c-.5335.143-.85.6913-.7071 1.2248L8.7612 31.693c.143.5335.6913.85 1.2247.7071l18.0306-4.8313c.5335-.143.85-.6913.7071-1.2247L25.963 16.0408c-.143-.5334-.6913-.85-1.2248-.707L6.7075 20.165z"/><g fill="#283E4F" transform="rotate(-15 86.665 -52.3386)"><rect width="6" height="1" y="4" rx=".5"/><rect width="8.667" height="1" y="2" rx=".5"/><rect width="8.667" height="1" rx=".5"/></g><path fill="#283E4F" fill-rule="nonzero" d="M13.0543 28.472c1.198-.321 2.8214.3619 3.9288 1.7081l.644-.1725c-1.2813-1.7173-3.0806-2.6255-4.7453-2.1795-1.638.4389-2.7083 2.1708-2.9822 4.25l.644-.1725c.3083-1.7117 1.3651-3.1266 2.5107-3.4335z"/><path stroke="#283E4F" stroke-width=".667" d="M12.9637 26.7709c1.3395-.359 2.1645-2.2254 1.7419-3.8026-.3978-1.4844-1.8749-2.3734-3.2948-1.993-.9439.253-1.6563 1.0157-1.8821 1.9824-.1056.452-.0989.9276.0253 1.391.4226 1.5771 2.0703 2.781 3.4097 2.4222z"/><path fill="#283E4F" d="M14.6667 16H16v20.6667h-1.3333z"/><path fill="#FFF" fill-opacity=".67" d="M16 14.6667h16v18H16z"/><path stroke="#FFF" stroke-width=".667" d="M16.3334 14.3333h15.3333v17.3333H16.3334z"/></g></svg>