<svg xmlns="http://www.w3.org/2000/svg" xmlns:xlink="http://www.w3.org/1999/xlink" version="1.1" viewBox="0 0 42 48"><title>cross-device-small-icon</title><desc>Created with Sketch.</desc><defs><rect id="c" width="28" height="48" rx="4"/><circle id="b" cx="14" cy="43" r="2"/><path id="a" d="m2-1.8284e-15 28 1.2872e-14v1.3911e-15c1.1046-2.165e-15 2 0.89543 2 2v16c0 1.1046-0.89543 2-2 2h-28c-1.1046 0-2-0.89543-2-2v-16h-1.1102e-15c-1.3527e-16 -1.1046 0.89543-2 2-2z"/></defs><g fill="none" fill-rule="evenodd"><g><g transform="translate(-8 -12) translate(7 12)"><g><g transform="translate(15) translate(-0)"><use fill="#FFF" fill-rule="evenodd" xlink:href="#c"/><rect width="26" height="46" x="1" y="1" stroke="#2C3E4F" stroke-width="2" rx="4"/><rect width="10" height="1" x="9" y="4" fill="#2C3E4F" rx=".5"/><g id="e"><use fill="#FFF" fill-rule="evenodd" xlink:href="#b"/><circle cx="14" cy="43" r="1.5" stroke="#2C3E4F"/></g></g></g><g id="d"><g><g transform="translate(19.369 23.902) rotate(-15) translate(-16.5 -11) translate(.21166 .81778) translate(0 1)"><use fill="#FFF" fill-rule="evenodd" xlink:href="#a"/><path stroke="#283E4F" d="m2 0.5c-0.82843 0-1.5 0.67157-1.5 1.5v16c0 0.82843 0.67157 1.5 1.5 1.5h28c0.82843 0 1.5-0.67157 1.5-1.5v-16c0-0.82843-0.67157-1.5-1.5-1.5h-28z"/><g fill="#283E4F" transform="translate(16 5)"><rect width="13" height="1" y="6" rx=".5"/><rect width="10" height="1" x="3" y="3" rx=".5"/><rect width="2" height="1" x="5" rx=".5"/><rect width="2" height="1" x="8" rx=".5"/><rect width="2" height="1" x="11" rx=".5"/></g><g stroke="#283E4F" stroke-width="1.2"><path d="m11.074 4.4c-1.1877-2.369-3.0797-3.8-5.1034-3.8-1.9488 0-3.8205 1.4493-5.0322 3.8h10.136z" transform="translate(2 14)"/></g><g stroke="#283E4F"><path d="m5.3824 11.1c2.3461 0 4.5-2.6477 4.5-5.3667 0-2.5618-2.0177-4.6333-4.5-4.6333-1.6508 0-3.1456 0.92312-3.9351 2.384-0.36862 0.68201-0.56487 1.4504-0.56487 2.2494 0 2.7189 2.1539 5.3667 4.5 5.3667z" transform="translate(2.6176 1.4)"/></g></g></g></g><rect width="2" height="31" x="15" y="12" fill="#283E4F"/><rect width="24" height="27" x="17" y="10" fill="#fff" fill-opacity=".67"/><rect width="23" height="26" x="17.5" y="10.5" stroke="#fff"/></g></g></g></svg>